<svg xmlns="http://www.w3.org/2000/svg" xmlns:xlink="http://www.w3.org/1999/xlink" width="246" height="187" viewBox="0 0 246 187">
  <defs>
    <filter id="Rect치ngulo_36007" x="0" y="0" width="246" height="187" filterUnits="userSpaceOnUse">
      <feOffset dy="3" input="SourceAlpha"/>
      <feGaussianBlur stdDeviation="3" result="blur"/>
      <feFlood flood-opacity="0.161"/>
      <feComposite operator="in" in2="blur"/>
      <feComposite in="SourceGraphic"/>
    </filter>
  </defs>
  <g id="Grupo_152027" data-name="Grupo 152027" transform="translate(-196.676 -2608)">
    <g transform="matrix(1, 0, 0, 1, 196.68, 2608)" filter="url(#Rect치ngulo_36007)">
      <rect id="Rect치ngulo_36007-2" data-name="Rect치ngulo 36007" width="228" height="169" rx="10" transform="translate(9 6)" fill="#fff"/>
    </g>
    <path id="Trazado_194460" data-name="Trazado 194460" d="M63.957,5.625l2.922,8.25,2.906-8.25h3.078V17H70.512V13.891l.234-5.367L67.676,17H66.066L63,8.531l.234,5.359V17H60.895V5.625ZM74.41,12.7a5.013,5.013,0,0,1,.484-2.242A3.546,3.546,0,0,1,76.289,8.93,4.069,4.069,0,0,1,78.4,8.391,3.849,3.849,0,0,1,81.2,9.438,4.2,4.2,0,0,1,82.4,12.281l.016.578a4.418,4.418,0,0,1-1.086,3.121,4.209,4.209,0,0,1-5.832,0A4.5,4.5,0,0,1,74.41,12.8Zm2.258.16a3.16,3.16,0,0,0,.453,1.843,1.628,1.628,0,0,0,2.578.008,3.457,3.457,0,0,0,.461-2.015A3.128,3.128,0,0,0,79.7,10.86a1.5,1.5,0,0,0-1.3-.649,1.474,1.474,0,0,0-1.281.646A3.516,3.516,0,0,0,76.668,12.856Zm6.789-.145a5.094,5.094,0,0,1,.887-3.148A2.877,2.877,0,0,1,86.77,8.391a2.589,2.589,0,0,1,2.039.922V5h2.266V17H89.035l-.109-.9a2.657,2.657,0,0,1-2.172,1.055,2.869,2.869,0,0,1-2.395-1.176A5.258,5.258,0,0,1,83.457,12.711Zm2.258.168a3.337,3.337,0,0,0,.414,1.823,1.349,1.349,0,0,0,1.2.634,1.511,1.511,0,0,0,1.477-.884V11.111a1.489,1.489,0,0,0-1.461-.884Q85.715,10.227,85.715,12.879Zm11,4.277a4.15,4.15,0,0,1-3.027-1.141,4.054,4.054,0,0,1-1.168-3.039v-.219a5.106,5.106,0,0,1,.492-2.277,3.612,3.612,0,0,1,1.395-1.547,3.914,3.914,0,0,1,2.059-.543A3.508,3.508,0,0,1,99.2,9.484a4.444,4.444,0,0,1,1,3.1v.922H94.809a2.1,2.1,0,0,0,.66,1.328,2,2,0,0,0,1.395.5,2.437,2.437,0,0,0,2.039-.945l1.109,1.242a3.389,3.389,0,0,1-1.375,1.121A4.511,4.511,0,0,1,96.715,17.156Zm-.258-6.945a1.411,1.411,0,0,0-1.09.455,2.357,2.357,0,0,0-.535,1.3h3.141v-.181a1.681,1.681,0,0,0-.406-1.165A1.456,1.456,0,0,0,96.457,10.211Zm7.4,6.789H101.59V5h2.266Zm1.508-4.3a5.013,5.013,0,0,1,.484-2.242,3.546,3.546,0,0,1,1.395-1.523,4.069,4.069,0,0,1,2.113-.539,3.849,3.849,0,0,1,2.793,1.047,4.2,4.2,0,0,1,1.207,2.844l.016.578a4.418,4.418,0,0,1-1.086,3.121,4.209,4.209,0,0,1-5.832,0,4.5,4.5,0,0,1-1.09-3.187Zm2.258.16a3.16,3.16,0,0,0,.453,1.843,1.628,1.628,0,0,0,2.578.008,3.457,3.457,0,0,0,.461-2.015,3.128,3.128,0,0,0-.461-1.831,1.5,1.5,0,0,0-1.3-.649,1.474,1.474,0,0,0-1.281.646A3.516,3.516,0,0,0,107.621,12.856Zm11.719,1.808a.727.727,0,0,0-.41-.652,4.659,4.659,0,0,0-1.316-.426q-3.016-.633-3.016-2.562a2.323,2.323,0,0,1,.934-1.879,3.766,3.766,0,0,1,2.441-.754,4.053,4.053,0,0,1,2.574.758,2.388,2.388,0,0,1,.965,1.969h-2.258a1.092,1.092,0,0,0-.312-.8,1.322,1.322,0,0,0-.977-.316,1.351,1.351,0,0,0-.883.258.814.814,0,0,0-.312.656.7.7,0,0,0,.355.605,3.657,3.657,0,0,0,1.2.4,9.8,9.8,0,0,1,1.422.379,2.336,2.336,0,0,1,1.789,2.273,2.2,2.2,0,0,1-.992,1.871,4.28,4.28,0,0,1-2.562.715,4.47,4.47,0,0,1-1.887-.379,3.166,3.166,0,0,1-1.293-1.039,2.414,2.414,0,0,1-.469-1.426h2.141a1.179,1.179,0,0,0,.445.922,1.766,1.766,0,0,0,1.109.32,1.635,1.635,0,0,0,.98-.246A.766.766,0,0,0,119.34,14.664ZM43.953,30.711a5.094,5.094,0,0,1,.887-3.148,2.877,2.877,0,0,1,2.426-1.172,2.589,2.589,0,0,1,2.039.922V23H51.57V35H49.531l-.109-.9a2.657,2.657,0,0,1-2.172,1.055,2.869,2.869,0,0,1-2.395-1.176A5.258,5.258,0,0,1,43.953,30.711Zm2.258.168a3.337,3.337,0,0,0,.414,1.823,1.349,1.349,0,0,0,1.2.634,1.511,1.511,0,0,0,1.477-.884V29.111a1.489,1.489,0,0,0-1.461-.884Q46.211,28.227,46.211,30.879Zm11,4.277a4.15,4.15,0,0,1-3.027-1.141,4.054,4.054,0,0,1-1.168-3.039v-.219a5.106,5.106,0,0,1,.492-2.277A3.612,3.612,0,0,1,54.9,26.934a3.914,3.914,0,0,1,2.059-.543,3.508,3.508,0,0,1,2.73,1.094,4.444,4.444,0,0,1,1,3.1v.922H55.3a2.1,2.1,0,0,0,.66,1.328,2,2,0,0,0,1.395.5,2.437,2.437,0,0,0,2.039-.945l1.109,1.242a3.389,3.389,0,0,1-1.375,1.121A4.511,4.511,0,0,1,57.211,35.156Zm-.258-6.945a1.411,1.411,0,0,0-1.09.455,2.357,2.357,0,0,0-.535,1.3h3.141v-.181a1.681,1.681,0,0,0-.406-1.165A1.456,1.456,0,0,0,56.953,28.211Zm13.75.453a6.134,6.134,0,0,0-.812-.062,1.654,1.654,0,0,0-1.68.867V35H65.953V26.547h2.133l.063,1.008a2.092,2.092,0,0,1,1.883-1.164,2.366,2.366,0,0,1,.7.1Zm4.977,6.492a4.15,4.15,0,0,1-3.027-1.141,4.054,4.054,0,0,1-1.168-3.039v-.219a5.106,5.106,0,0,1,.492-2.277,3.612,3.612,0,0,1,1.395-1.547,3.914,3.914,0,0,1,2.059-.543,3.508,3.508,0,0,1,2.73,1.094,4.444,4.444,0,0,1,1,3.1v.922H73.773a2.1,2.1,0,0,0,.66,1.328,2,2,0,0,0,1.395.5,2.437,2.437,0,0,0,2.039-.945l1.109,1.242A3.389,3.389,0,0,1,77.6,34.754,4.511,4.511,0,0,1,75.68,35.156Zm-.258-6.945a1.411,1.411,0,0,0-1.09.455,2.357,2.357,0,0,0-.535,1.3h3.141v-.181a1.681,1.681,0,0,0-.406-1.165A1.456,1.456,0,0,0,75.422,28.211ZM81.055,35V28.2H79.8V26.547h1.258v-.719a2.918,2.918,0,0,1,.816-2.207,3.162,3.162,0,0,1,2.285-.785,5.278,5.278,0,0,1,1.148.156l-.023,1.75a2.878,2.878,0,0,0-.687-.07q-1.273,0-1.273,1.2v.68H85V28.2H83.32V35Zm9.008.156a4.15,4.15,0,0,1-3.027-1.141,4.054,4.054,0,0,1-1.168-3.039v-.219a5.106,5.106,0,0,1,.492-2.277,3.612,3.612,0,0,1,1.395-1.547,3.914,3.914,0,0,1,2.059-.543,3.508,3.508,0,0,1,2.73,1.094,4.444,4.444,0,0,1,1,3.1v.922H88.156a2.1,2.1,0,0,0,.66,1.328,2,2,0,0,0,1.395.5,2.437,2.437,0,0,0,2.039-.945l1.109,1.242a3.389,3.389,0,0,1-1.375,1.121A4.511,4.511,0,0,1,90.063,35.156ZM89.8,28.211a1.411,1.411,0,0,0-1.09.455,2.357,2.357,0,0,0-.535,1.3H91.32v-.181a1.681,1.681,0,0,0-.406-1.165A1.456,1.456,0,0,0,89.8,28.211Zm9.766.453a6.134,6.134,0,0,0-.812-.062,1.654,1.654,0,0,0-1.68.867V35H94.82V26.547h2.133l.063,1.008A2.092,2.092,0,0,1,98.9,26.391a2.366,2.366,0,0,1,.7.1Zm4.977,6.492a4.15,4.15,0,0,1-3.027-1.141,4.054,4.054,0,0,1-1.168-3.039v-.219a5.106,5.106,0,0,1,.492-2.277,3.612,3.612,0,0,1,1.395-1.547,3.914,3.914,0,0,1,2.059-.543,3.508,3.508,0,0,1,2.73,1.094,4.444,4.444,0,0,1,1,3.1v.922h-5.383a2.1,2.1,0,0,0,.66,1.328,2,2,0,0,0,1.395.5,2.437,2.437,0,0,0,2.039-.945l1.109,1.242a3.389,3.389,0,0,1-1.375,1.121A4.511,4.511,0,0,1,104.547,35.156Zm-.258-6.945a1.411,1.411,0,0,0-1.09.455,2.357,2.357,0,0,0-.535,1.3H105.8v-.181a1.681,1.681,0,0,0-.406-1.165A1.456,1.456,0,0,0,104.289,28.211Zm7.094-1.664.07.977a2.951,2.951,0,0,1,2.43-1.133,2.453,2.453,0,0,1,2,.789,3.682,3.682,0,0,1,.672,2.359V35H114.3V29.594a1.465,1.465,0,0,0-.312-1.043,1.4,1.4,0,0,0-1.039-.324,1.553,1.553,0,0,0-1.43.813V35h-2.258V26.547Zm10.4,6.789a1.481,1.481,0,0,0,1.016-.344,1.2,1.2,0,0,0,.406-.914h2.117a2.9,2.9,0,0,1-.469,1.574,3.093,3.093,0,0,1-1.262,1.109,3.949,3.949,0,0,1-1.77.395A3.67,3.67,0,0,1,118.961,34a4.56,4.56,0,0,1-1.047-3.184v-.148a4.508,4.508,0,0,1,1.039-3.117,3.627,3.627,0,0,1,2.852-1.164,3.555,3.555,0,0,1,2.543.9,3.2,3.2,0,0,1,.973,2.4H123.2a1.551,1.551,0,0,0-.406-1.072,1.51,1.51,0,0,0-2.223.163,3.333,3.333,0,0,0-.4,1.866v.235a3.375,3.375,0,0,0,.4,1.878A1.377,1.377,0,0,0,121.781,33.336ZM128.992,35h-2.266V26.547h2.266Zm-2.4-10.641a1.112,1.112,0,0,1,.34-.836,1.465,1.465,0,0,1,1.848,0,1.193,1.193,0,0,1,0,1.68,1.448,1.448,0,0,1-1.836,0A1.108,1.108,0,0,1,126.594,24.359ZM135.75,35a2.507,2.507,0,0,1-.227-.758,2.732,2.732,0,0,1-2.133.914,3,3,0,0,1-2.059-.719,2.312,2.312,0,0,1-.816-1.812,2.389,2.389,0,0,1,1-2.062,4.915,4.915,0,0,1,2.879-.727h1.039v-.484a1.393,1.393,0,0,0-.3-.937,1.183,1.183,0,0,0-.949-.352,1.345,1.345,0,0,0-.895.273.929.929,0,0,0-.324.75H130.7a2.268,2.268,0,0,1,.453-1.359,3,3,0,0,1,1.281-.98,4.669,4.669,0,0,1,1.859-.355,3.689,3.689,0,0,1,2.48.785,2.747,2.747,0,0,1,.918,2.207v3.664a4.041,4.041,0,0,0,.336,1.82V35Zm-1.867-1.57a1.945,1.945,0,0,0,.922-.223,1.462,1.462,0,0,0,.625-.6V31.156h-.844q-1.7,0-1.8,1.172l-.008.133a.9.9,0,0,0,.3.7A1.153,1.153,0,0,0,133.883,33.43Z" transform="translate(229.676 2731)" fill="#12263f"/>
    <g id="Grupo_142438" data-name="Grupo 142438" transform="translate(21.676 -3197)">
      <circle id="Elipse_4775" data-name="Elipse 4775" cx="43" cy="43" r="43" transform="translate(256 5830)" fill="#244366"/>
      <g id="ikyWAX.tif" transform="translate(1318.358 4351.045)">
        <g id="Grupo_142576" data-name="Grupo 142576" transform="translate(-1036.052 1491.699)">
          <path id="Trazado_183819" data-name="Trazado 183819" d="M-1035.269,1519.863q0,12.128,0,24.257c0,2.055.978,3.02,3.042,3.019h24.254c1.674,0,2.378-.688,2.393-2.4.02-2.212.006-4.424.006-6.636q0-4.158,0-8.315a2.195,2.195,0,0,1,.041-.679.526.526,0,0,1,.383-.266c.1-.011.272.148.308.263a2.081,2.081,0,0,1,.038.6c0,4.933.011,9.866-.01,14.8a5.426,5.426,0,0,1-.275,1.712,2.284,2.284,0,0,1-2.418,1.7q-12.547.008-25.094,0a3.346,3.346,0,0,1-3.451-3.476q-.005-24.639,0-49.278a3.34,3.34,0,0,1,3.464-3.46q12.508-.013,25.017,0a2.862,2.862,0,0,1,3.061,3.119q-.047,3.356-.165,6.71c-.008.233-.263.458-.4.686-.117-.243-.338-.486-.336-.728.022-2.161.088-4.321.13-6.482a2.167,2.167,0,0,0-2.488-2.525q-12.28,0-24.56,0a2.62,2.62,0,0,0-2.939,2.968Q-1035.27,1507.657-1035.269,1519.863Z" transform="translate(1036.052 -1491.699)" fill="#fff" stroke="#fff" stroke-width="1"/>
          <path id="Trazado_183820" data-name="Trazado 183820" d="M-993.726,1522.564c0,1.814.01,3.563-.017,5.311,0,.165-.242.327-.372.49-.13-.184-.367-.364-.373-.552-.035-1.168-.019-2.338-.019-3.508,0-.3,0-.6,0-.945h-24.945v41.306h24.945v-.926q0-3.89,0-7.779a2.3,2.3,0,0,1,.042-.68.538.538,0,0,1,.362-.3c.092-.017.24.144.325.254a.517.517,0,0,1,.052.293c0,3.276,0,6.553,0,9.891h-26.5v-42.862Z" transform="translate(1022.645 -1517.847)" fill="#fff" stroke="#fff" stroke-width="1"/>
          <path id="Trazado_183821" data-name="Trazado 183821" d="M-880.176,1590.379c1.01,0,1.921-.017,2.831.011a2.832,2.832,0,0,1,.746.237,2.559,2.559,0,0,1-.246.672c-2.243,3.051-4.5,6.088-6.748,9.138-.367.5-.648.55-1.04.017-2.257-3.072-4.533-6.129-6.792-9.2-.122-.166-.26-.494-.185-.593a.9.9,0,0,1,.63-.271c.935-.028,1.872-.012,2.911-.012v-.863c0-2.339.015-4.678-.008-7.017-.006-.619.19-.855.833-.845q3.126.047,6.253,0c.644-.01.832.225.826.845C-880.191,1585.089-880.176,1587.679-880.176,1590.379Zm-10.361.776,6.42,8.665,6.413-8.664c-.959,0-1.72-.032-2.478.01-.616.035-.786-.215-.78-.8.024-2.364.01-4.728.01-7.092v-.781h-6.333v.878c0,2.288-.027,4.576.015,6.864.014.752-.245.987-.966.932C-888.937,1591.113-889.645,1591.155-890.537,1591.155Z" transform="translate(913.703 -1567.906)" fill="#fff" stroke="#fff" stroke-width="1"/>
          <path id="Trazado_183822" data-name="Trazado 183822" d="M-903.43,1705.19c0-.757-.028-1.444.017-2.126.013-.193.237-.373.364-.559.131.178.348.345.374.537a10.535,10.535,0,0,1,.018,1.356H-885.6a10.748,10.748,0,0,1,.019-1.374c.025-.186.257-.345.395-.516.119.165.331.324.341.5.039.708.016,1.419.016,2.187Z" transform="translate(923.705 -1670.288)" fill="#fff" stroke="#fff" stroke-width="1"/>
          <path id="Trazado_183823" data-name="Trazado 183823" d="M-944.8,1811.328a2.5,2.5,0,0,1,2.476,2.541,2.543,2.543,0,0,1-2.551,2.486,2.548,2.548,0,0,1-2.477-2.561A2.5,2.5,0,0,1-944.8,1811.328Zm-.007.775a1.74,1.74,0,0,0-1.771,1.716,1.781,1.781,0,0,0,1.747,1.758,1.788,1.788,0,0,0,1.733-1.7A1.744,1.744,0,0,0-944.8,1812.1Z" transform="translate(960.905 -1762.48)" fill="#fff" stroke="#fff" stroke-width="1"/>
          <path id="Trazado_183824" data-name="Trazado 183824" d="M-944.054,1507.718c-.608,0-1.218.026-1.824-.017-.167-.012-.319-.23-.478-.354.155-.131.307-.371.465-.375q1.862-.047,3.725,0c.148,0,.289.261.434.4-.166.115-.325.318-.5.33C-942.836,1507.744-943.445,1507.719-944.054,1507.718Z" transform="translate(960.063 -1504.617)" fill="#fff" stroke="#fff" stroke-width="1"/>
        </g>
      </g>
    </g>
  </g>
</svg>
