<svg xmlns="http://www.w3.org/2000/svg" xmlns:xlink="http://www.w3.org/1999/xlink" width="246" height="187" viewBox="0 0 246 187">
  <defs>
    <filter id="Rect치ngulo_44438" x="0" y="0" width="246" height="187" filterUnits="userSpaceOnUse">
      <feOffset dy="3" input="SourceAlpha"/>
      <feGaussianBlur stdDeviation="3" result="blur"/>
      <feFlood flood-opacity="0.161"/>
      <feComposite operator="in" in2="blur"/>
      <feComposite in="SourceGraphic"/>
    </filter>
  </defs>
  <g id="Grupo_152027" data-name="Grupo 152027" transform="translate(-436.676 -2608)">
    <g id="Grupo_152026" data-name="Grupo 152026">
      <g transform="matrix(1, 0, 0, 1, 436.68, 2608)" filter="url(#Rect치ngulo_44438)">
        <rect id="Rect치ngulo_44438-2" data-name="Rect치ngulo 44438" width="228" height="169" rx="10" transform="translate(9 6)" fill="#fff"/>
      </g>
      <path id="Trazado_194461" data-name="Trazado 194461" d="M44.512,12.992V17H42.168V5.625h4.438a5.134,5.134,0,0,1,2.254.469,3.454,3.454,0,0,1,1.5,1.332,3.714,3.714,0,0,1,.523,1.965,3.266,3.266,0,0,1-1.145,2.637,4.767,4.767,0,0,1-3.168.965Zm0-1.9h2.094a2.059,2.059,0,0,0,1.418-.437,1.591,1.591,0,0,0,.488-1.25,1.876,1.876,0,0,0-.492-1.352,1.839,1.839,0,0,0-1.359-.531H44.512Zm12.578-.43a6.134,6.134,0,0,0-.812-.062,1.654,1.654,0,0,0-1.68.867V17H52.34V8.547h2.133l.063,1.008a2.092,2.092,0,0,1,1.883-1.164,2.366,2.366,0,0,1,.7.1Zm.453,2.031a5.013,5.013,0,0,1,.484-2.242A3.546,3.546,0,0,1,59.422,8.93a4.069,4.069,0,0,1,2.113-.539,3.849,3.849,0,0,1,2.793,1.047,4.2,4.2,0,0,1,1.207,2.844l.016.578a4.418,4.418,0,0,1-1.086,3.121,4.209,4.209,0,0,1-5.832,0,4.5,4.5,0,0,1-1.09-3.187Zm2.258.16a3.16,3.16,0,0,0,.453,1.843,1.628,1.628,0,0,0,2.578.008,3.457,3.457,0,0,0,.461-2.015,3.128,3.128,0,0,0-.461-1.831,1.5,1.5,0,0,0-1.3-.649,1.474,1.474,0,0,0-1.281.646A3.516,3.516,0,0,0,59.8,12.856Zm9.844-6.387V8.547H71.09V10.2H69.645v4.219a1.007,1.007,0,0,0,.18.672.9.9,0,0,0,.688.2,3.6,3.6,0,0,0,.664-.055v1.711a4.648,4.648,0,0,1-1.367.2,2.156,2.156,0,0,1-2.422-2.4V10.2H66.152V8.547h1.234V6.469ZM71.762,12.7a5.013,5.013,0,0,1,.484-2.242A3.546,3.546,0,0,1,73.641,8.93a4.069,4.069,0,0,1,2.113-.539,3.849,3.849,0,0,1,2.793,1.047,4.2,4.2,0,0,1,1.207,2.844l.016.578a4.418,4.418,0,0,1-1.086,3.121,4.209,4.209,0,0,1-5.832,0,4.5,4.5,0,0,1-1.09-3.187Zm2.258.16a3.16,3.16,0,0,0,.453,1.843,1.628,1.628,0,0,0,2.578.008,3.457,3.457,0,0,0,.461-2.015,3.128,3.128,0,0,0-.461-1.831,1.5,1.5,0,0,0-1.3-.649,1.474,1.474,0,0,0-1.281.646A3.516,3.516,0,0,0,74.02,12.856Zm10.656,2.48a1.481,1.481,0,0,0,1.016-.344,1.2,1.2,0,0,0,.406-.914h2.117a2.9,2.9,0,0,1-.469,1.574,3.093,3.093,0,0,1-1.262,1.109,3.949,3.949,0,0,1-1.77.395A3.67,3.67,0,0,1,81.855,16a4.56,4.56,0,0,1-1.047-3.184v-.148a4.508,4.508,0,0,1,1.039-3.117A3.627,3.627,0,0,1,84.7,8.391a3.555,3.555,0,0,1,2.543.9,3.2,3.2,0,0,1,.973,2.4H86.1a1.551,1.551,0,0,0-.406-1.072,1.51,1.51,0,0,0-2.223.163,3.333,3.333,0,0,0-.4,1.866v.235a3.375,3.375,0,0,0,.4,1.878A1.377,1.377,0,0,0,84.676,15.336ZM89.152,12.7a5.013,5.013,0,0,1,.484-2.242A3.546,3.546,0,0,1,91.031,8.93a4.069,4.069,0,0,1,2.113-.539,3.849,3.849,0,0,1,2.793,1.047,4.2,4.2,0,0,1,1.207,2.844l.016.578a4.418,4.418,0,0,1-1.086,3.121,4.209,4.209,0,0,1-5.832,0,4.5,4.5,0,0,1-1.09-3.187Zm2.258.16a3.16,3.16,0,0,0,.453,1.843,1.628,1.628,0,0,0,2.578.008,3.457,3.457,0,0,0,.461-2.015,3.128,3.128,0,0,0-.461-1.831,1.5,1.5,0,0,0-1.3-.649,1.474,1.474,0,0,0-1.281.646A3.516,3.516,0,0,0,91.41,12.856ZM100.934,17H98.668V5h2.266Zm1.508-4.3a5.013,5.013,0,0,1,.484-2.242A3.546,3.546,0,0,1,104.32,8.93a4.069,4.069,0,0,1,2.113-.539,3.849,3.849,0,0,1,2.793,1.047,4.2,4.2,0,0,1,1.207,2.844l.016.578a4.418,4.418,0,0,1-1.086,3.121,4.209,4.209,0,0,1-5.832,0,4.5,4.5,0,0,1-1.09-3.187Zm2.258.16a3.16,3.16,0,0,0,.453,1.843,1.628,1.628,0,0,0,2.578.008,3.457,3.457,0,0,0,.461-2.015,3.128,3.128,0,0,0-.461-1.831,1.5,1.5,0,0,0-1.3-.649,1.474,1.474,0,0,0-1.281.646A3.516,3.516,0,0,0,104.7,12.856Zm11.719,1.808a.727.727,0,0,0-.41-.652,4.659,4.659,0,0,0-1.316-.426q-3.016-.633-3.016-2.562a2.323,2.323,0,0,1,.934-1.879,3.766,3.766,0,0,1,2.441-.754,4.053,4.053,0,0,1,2.574.758,2.388,2.388,0,0,1,.965,1.969h-2.258a1.092,1.092,0,0,0-.312-.8,1.322,1.322,0,0,0-.977-.316,1.351,1.351,0,0,0-.883.258.814.814,0,0,0-.312.656.7.7,0,0,0,.355.605,3.657,3.657,0,0,0,1.2.4,9.8,9.8,0,0,1,1.422.379,2.336,2.336,0,0,1,1.789,2.273,2.2,2.2,0,0,1-.992,1.871,4.28,4.28,0,0,1-2.562.715,4.47,4.47,0,0,1-1.887-.379,3.166,3.166,0,0,1-1.293-1.039,2.414,2.414,0,0,1-.469-1.426h2.141a1.179,1.179,0,0,0,.445.922,1.766,1.766,0,0,0,1.109.32,1.635,1.635,0,0,0,.98-.246A.766.766,0,0,0,116.418,14.664Zm7.281-1.953a5.094,5.094,0,0,1,.887-3.148,2.877,2.877,0,0,1,2.426-1.172,2.589,2.589,0,0,1,2.039.922V5h2.266V17h-2.039l-.109-.9A2.657,2.657,0,0,1,127,17.156,2.869,2.869,0,0,1,124.6,15.98,5.258,5.258,0,0,1,123.7,12.711Zm2.258.168a3.337,3.337,0,0,0,.414,1.823,1.349,1.349,0,0,0,1.2.634,1.511,1.511,0,0,0,1.477-.884V11.111a1.489,1.489,0,0,0-1.461-.884Q125.957,10.227,125.957,12.879Zm11,4.277a4.15,4.15,0,0,1-3.027-1.141,4.054,4.054,0,0,1-1.168-3.039v-.219a5.106,5.106,0,0,1,.492-2.277,3.612,3.612,0,0,1,1.395-1.547,3.914,3.914,0,0,1,2.059-.543,3.508,3.508,0,0,1,2.73,1.094,4.444,4.444,0,0,1,1,3.1v.922h-5.383a2.1,2.1,0,0,0,.66,1.328,2,2,0,0,0,1.395.5,2.437,2.437,0,0,0,2.039-.945l1.109,1.242a3.389,3.389,0,0,1-1.375,1.121A4.511,4.511,0,0,1,136.957,17.156Zm-.258-6.945a1.411,1.411,0,0,0-1.09.455,2.357,2.357,0,0,0-.535,1.3h3.141v-.181a1.681,1.681,0,0,0-.406-1.165A1.456,1.456,0,0,0,136.7,10.211ZM44.926,33.336a1.481,1.481,0,0,0,1.016-.344,1.2,1.2,0,0,0,.406-.914h2.117A2.9,2.9,0,0,1,48,33.652a3.093,3.093,0,0,1-1.262,1.109,3.949,3.949,0,0,1-1.77.395A3.67,3.67,0,0,1,42.105,34a4.56,4.56,0,0,1-1.047-3.184v-.148A4.508,4.508,0,0,1,42.1,27.555a3.627,3.627,0,0,1,2.852-1.164,3.555,3.555,0,0,1,2.543.9,3.2,3.2,0,0,1,.973,2.4H46.348a1.551,1.551,0,0,0-.406-1.072,1.51,1.51,0,0,0-2.223.163,3.333,3.333,0,0,0-.4,1.866v.235a3.375,3.375,0,0,0,.4,1.878A1.377,1.377,0,0,0,44.926,33.336ZM49.4,30.7a5.013,5.013,0,0,1,.484-2.242,3.546,3.546,0,0,1,1.395-1.523,4.069,4.069,0,0,1,2.113-.539,3.849,3.849,0,0,1,2.793,1.047,4.2,4.2,0,0,1,1.207,2.844l.016.578a4.418,4.418,0,0,1-1.086,3.121,4.209,4.209,0,0,1-5.832,0A4.5,4.5,0,0,1,49.4,30.8Zm2.258.16a3.16,3.16,0,0,0,.453,1.843,1.628,1.628,0,0,0,2.578.008,3.457,3.457,0,0,0,.461-2.015,3.128,3.128,0,0,0-.461-1.831,1.5,1.5,0,0,0-1.3-.649,1.474,1.474,0,0,0-1.281.646A3.516,3.516,0,0,0,51.66,30.856Zm9.258-4.309.07.945a2.971,2.971,0,0,1,2.43-1.1A2.255,2.255,0,0,1,65.66,27.68,2.9,2.9,0,0,1,68.2,26.391a2.521,2.521,0,0,1,2.047.8,3.681,3.681,0,0,1,.672,2.41V35H68.652V29.609a1.61,1.61,0,0,0-.281-1.051,1.246,1.246,0,0,0-.992-.332,1.409,1.409,0,0,0-1.406.969L65.98,35H63.723V29.617a1.59,1.59,0,0,0-.289-1.062,1.259,1.259,0,0,0-.984-.328,1.463,1.463,0,0,0-1.391.8V35H58.8V26.547Zm16.8,7.594A2.831,2.831,0,0,1,75.4,35.156a2.67,2.67,0,0,1-2.074-.781,3.335,3.335,0,0,1-.73-2.289V26.547h2.258v5.467q0,1.322,1.2,1.322a1.63,1.63,0,0,0,1.578-.8V26.547H79.9V35H77.777Zm5.969-7.594.07.977a2.951,2.951,0,0,1,2.43-1.133,2.453,2.453,0,0,1,2,.789,3.682,3.682,0,0,1,.672,2.359V35H86.6V29.594a1.465,1.465,0,0,0-.312-1.043,1.4,1.4,0,0,0-1.039-.324,1.553,1.553,0,0,0-1.43.813V35H81.559V26.547ZM92.949,35H90.684V26.547h2.266Zm-2.4-10.641a1.112,1.112,0,0,1,.34-.836,1.465,1.465,0,0,1,1.848,0,1.193,1.193,0,0,1,0,1.68,1.448,1.448,0,0,1-1.836,0A1.108,1.108,0,0,1,90.551,24.359Zm7.773,8.977a1.481,1.481,0,0,0,1.016-.344,1.2,1.2,0,0,0,.406-.914h2.117a2.9,2.9,0,0,1-.469,1.574,3.093,3.093,0,0,1-1.262,1.109,3.949,3.949,0,0,1-1.77.395A3.67,3.67,0,0,1,95.5,34a4.56,4.56,0,0,1-1.047-3.184v-.148A4.508,4.508,0,0,1,95.5,27.555a3.627,3.627,0,0,1,2.852-1.164,3.555,3.555,0,0,1,2.543.9,3.2,3.2,0,0,1,.973,2.4H99.746a1.551,1.551,0,0,0-.406-1.072,1.51,1.51,0,0,0-2.223.163,3.333,3.333,0,0,0-.4,1.866v.235a3.375,3.375,0,0,0,.4,1.878A1.377,1.377,0,0,0,98.324,33.336ZM108.051,35a2.507,2.507,0,0,1-.227-.758,2.732,2.732,0,0,1-2.133.914,3,3,0,0,1-2.059-.719,2.312,2.312,0,0,1-.816-1.812,2.389,2.389,0,0,1,1-2.062,4.915,4.915,0,0,1,2.879-.727h1.039v-.484a1.393,1.393,0,0,0-.3-.937,1.183,1.183,0,0,0-.949-.352,1.345,1.345,0,0,0-.895.273.929.929,0,0,0-.324.75H103a2.268,2.268,0,0,1,.453-1.359,3,3,0,0,1,1.281-.98,4.669,4.669,0,0,1,1.859-.355,3.689,3.689,0,0,1,2.48.785A2.747,2.747,0,0,1,110,29.383v3.664a4.041,4.041,0,0,0,.336,1.82V35Zm-1.867-1.57a1.945,1.945,0,0,0,.922-.223,1.462,1.462,0,0,0,.625-.6V31.156h-.844q-1.7,0-1.8,1.172l-.008.133a.9.9,0,0,0,.3.7A1.153,1.153,0,0,0,106.184,33.43Zm9.063-.094a1.481,1.481,0,0,0,1.016-.344,1.2,1.2,0,0,0,.406-.914h2.117a2.9,2.9,0,0,1-.469,1.574,3.093,3.093,0,0,1-1.262,1.109,3.949,3.949,0,0,1-1.77.395A3.67,3.67,0,0,1,112.426,34a4.56,4.56,0,0,1-1.047-3.184v-.148a4.508,4.508,0,0,1,1.039-3.117,3.627,3.627,0,0,1,2.852-1.164,3.555,3.555,0,0,1,2.543.9,3.2,3.2,0,0,1,.973,2.4h-2.117a1.551,1.551,0,0,0-.406-1.072,1.51,1.51,0,0,0-2.223.163,3.333,3.333,0,0,0-.4,1.866v.235a3.375,3.375,0,0,0,.4,1.878A1.377,1.377,0,0,0,115.246,33.336ZM122.457,35h-2.266V26.547h2.266Zm-2.4-10.641a1.112,1.112,0,0,1,.34-.836,1.465,1.465,0,0,1,1.848,0,1.193,1.193,0,0,1,0,1.68,1.448,1.448,0,0,1-1.836,0A1.108,1.108,0,0,1,120.059,24.359Zm3.906,6.336a5.013,5.013,0,0,1,.484-2.242,3.546,3.546,0,0,1,1.395-1.523,4.069,4.069,0,0,1,2.113-.539,3.849,3.849,0,0,1,2.793,1.047,4.2,4.2,0,0,1,1.207,2.844l.016.578a4.418,4.418,0,0,1-1.086,3.121,4.209,4.209,0,0,1-5.832,0,4.5,4.5,0,0,1-1.09-3.187Zm2.258.16a3.16,3.16,0,0,0,.453,1.843,1.628,1.628,0,0,0,2.578.008,3.457,3.457,0,0,0,.461-2.015,3.128,3.128,0,0,0-.461-1.831,1.5,1.5,0,0,0-1.3-.649,1.474,1.474,0,0,0-1.281.646A3.516,3.516,0,0,0,126.223,30.856ZM128.4,23h2.461L128.7,25.422h-1.836Zm7.039,3.547.07.977a2.951,2.951,0,0,1,2.43-1.133,2.453,2.453,0,0,1,2,.789,3.682,3.682,0,0,1,.672,2.359V35h-2.258V29.594a1.465,1.465,0,0,0-.312-1.043A1.4,1.4,0,0,0,137,28.227a1.553,1.553,0,0,0-1.43.813V35h-2.258V26.547Z" transform="translate(469.676 2731)" fill="#12263f"/>
      <g id="Grupo_149886" data-name="Grupo 149886" transform="translate(261.676 -3197)">
        <circle id="Elipse_4775" data-name="Elipse 4775" cx="43" cy="43" r="43" transform="translate(256 5830)" fill="#ff2c9c"/>
        <g id="Hi6H32.tif" transform="translate(-3962.125 5340.387)">
          <g id="Grupo_143033" data-name="Grupo 143033" transform="translate(4236.086 503.735)">
            <path id="Trazado_184074" data-name="Trazado 184074" d="M4486.972,513.7c-.614.591-1.22,1.193-1.846,1.772a1.749,1.749,0,0,0-.051,2.278c.442.421.876.851,1.327,1.263a.987.987,0,0,1,.266,1.238c-.387.871-.778,1.74-1.16,2.612a.927.927,0,0,1-1,.605,10.066,10.066,0,0,1-1.312-.1,1.8,1.8,0,0,0-1.916.654,1.159,1.159,0,0,0-.362.9c.05.608.053,1.22.072,1.831a.994.994,0,0,1-.7,1.057q-1.337.5-2.667,1.026a.958.958,0,0,1-1.175-.316,14.086,14.086,0,0,1-.958-1.138,1.586,1.586,0,0,0-1.495-.722,1.329,1.329,0,0,0-1.14.474c-.371.458-.81.861-1.216,1.291a.946.946,0,0,1-1.149.23c-.892-.386-1.775-.79-2.664-1.183a.927.927,0,0,1-.59-1.006c.05-.685.109-1.37.143-2.056a1.9,1.9,0,0,0-1.493-1.511c-.61.016-1.221.036-1.831.067a1.064,1.064,0,0,1-1.183-.771c-.309-.861-.646-1.711-.986-2.56a.98.98,0,0,1,.316-1.224,8.151,8.151,0,0,1,.964-.807,1.766,1.766,0,0,0,.865-1.935,1.218,1.218,0,0,0-.272-.636c-.443-.472-.922-.914-1.4-1.35a1.009,1.009,0,0,1-.273-1.284c.386-.85.767-1.7,1.136-2.56a.948.948,0,0,1,1.037-.629c.647.05,1.293.1,1.941.139a1.8,1.8,0,0,0,1.611-1.56c-.017-.591-.035-1.183-.065-1.774a1.063,1.063,0,0,1,.781-1.174c.927-.341,1.834-.731,2.75-1.1h.458c.6.628,1.214,1.249,1.806,1.887a1.808,1.808,0,0,0,2.2.057c.436-.454.878-.9,1.3-1.368a1.007,1.007,0,0,1,1.287-.255c.833.377,1.666.75,2.507,1.108a1,1,0,0,1,.665,1.129c-.058.607-.076,1.218-.143,1.824a1.2,1.2,0,0,0,.328.914,1.716,1.716,0,0,0,1.818.736,7.4,7.4,0,0,1,1.141-.051,1.05,1.05,0,0,1,1.249.834l1.079,2.694Zm-22.291-2.631c-.187.421-.337.814-.534,1.183-.162.3-.155.535.142.726a3.471,3.471,0,0,1,1.544,3.943c-.018.093.017.2-.02.284a3.17,3.17,0,0,1-.443.878,8.076,8.076,0,0,1-1.208,1.048.551.551,0,0,0-.189.82,1.424,1.424,0,0,1,.169.424c.109.638.484.747,1.09.722,2.194-.091,1.58-.243,3.11,1.233a2.639,2.639,0,0,1,.883,2.428c-.16,1.319-.1,1.337,1.152,1.819a.663.663,0,0,0,.568-.108c.436-.4.809-.864,1.245-1.262a1.347,1.347,0,0,1,.736-.369c1.669-.113,3.31-.109,4.233,1.679a.751.751,0,0,0,.187.216c.068.057.176.149.231.129a6.987,6.987,0,0,0,1.467-.608c.147-.1.109-.574.057-.859a2.7,2.7,0,0,1,1.212-2.959c.234-.159.391-.44.634-.573a2.591,2.591,0,0,1,1.07-.383,19.511,19.511,0,0,1,2.042.119,6.123,6.123,0,0,1,.378-.811c.367-.56.231-.927-.257-1.386-1.588-1.492-1.289-.852-1.31-3.135a2.524,2.524,0,0,1,1.083-2.228c1.111-.851,1.087-.9.474-2.164a.627.627,0,0,0-.456-.29c-.552-.019-1.114.084-1.656.018a2.212,2.212,0,0,1-1.1-.462,8.759,8.759,0,0,1-1.337-1.408,1.925,1.925,0,0,1-.37-1.017c-.03-.567.094-1.14.1-1.711a.669.669,0,0,0-.3-.5c-1.226-.625-1.229-.615-2.192.387a4.511,4.511,0,0,1-.4.41c-.233.188-.483.5-.729.5-1.521.017-3.187.407-4.145-1.346a2.292,2.292,0,0,0-.41-.475c-.076-.076-.2-.194-.268-.172a6.754,6.754,0,0,0-1.467.608c-.147.1-.1.569-.061.858a2.614,2.614,0,0,1-1.084,2.843c-.3.2-.5.538-.8.728a2.04,2.04,0,0,1-.971.349C4466.1,511.215,4465.415,511.123,4464.681,511.071Z" transform="translate(-4435.881 -503.735)" fill="#fff"/>
            <path id="Trazado_184075" data-name="Trazado 184075" d="M4250.163,607.719l1.942-4.543h-2.6q-4.3,0-8.591,0a4.586,4.586,0,0,1-4.822-4.817q0-13.976,0-27.951a4.576,4.576,0,0,1,4.772-4.807q9.708-.008,19.415,0h.527v1.833h-19.788a2.782,2.782,0,0,0-3.094,3.07q0,11.427,0,22.854v.613h43.974V583.043h1.847v.591q0,7.331,0,14.663a4.6,4.6,0,0,1-4.877,4.878q-5.211,0-10.423,0h-.716l1.958,4.583c1.279,0,2.538,0,3.8,0a2.754,2.754,0,1,1,.009,5.5q-13.573,0-27.145,0a2.754,2.754,0,1,1,.006-5.5c1.222,0,2.443,0,3.665-.007A.92.92,0,0,0,4250.163,607.719Zm-12.243-11.854c0,.843,0,1.624,0,2.405a2.783,2.783,0,0,0,3.093,3.072h19.7q9.136,0,18.271,0a2.665,2.665,0,0,0,2.854-2.275,26.975,26.975,0,0,0,.025-3.2Zm14.239,11.855h15.51c-.629-1.472-1.228-2.891-1.852-4.3a.565.565,0,0,0-.436-.236q-5.467-.02-10.934,0a.564.564,0,0,0-.436.235C4253.387,604.828,4252.789,606.247,4252.159,607.72Zm7.7,3.7H4273.2a3.179,3.179,0,0,0,.571-.015.909.909,0,0,0,0-1.8,2.875,2.875,0,0,0-.514-.014h-26.689a2.849,2.849,0,0,0-.514.014.909.909,0,0,0,0,1.8,3.208,3.208,0,0,0,.572.015Z" transform="translate(-4236.086 -558.494)" fill="#fff"/>
            <path id="Trazado_184076" data-name="Trazado 184076" d="M4308.172,783.169V781.4h27.419v1.766Z" transform="translate(-4299.896 -749.525)" fill="#fff"/>
            <path id="Trazado_184077" data-name="Trazado 184077" d="M4331.17,749.558v1.766h-22.837v-1.766Z" transform="translate(-4300.038 -721.336)" fill="#fff"/>
            <path id="Trazado_184078" data-name="Trazado 184078" d="M4328.427,717.632V719.4h-20.088v-1.764Z" transform="translate(-4300.043 -693.075)" fill="#fff"/>
            <path id="Trazado_184079" data-name="Trazado 184079" d="M4325.584,685.591v1.769h-17.354v-1.769Z" transform="translate(-4299.948 -664.712)" fill="#fff"/>
            <path id="Trazado_184080" data-name="Trazado 184080" d="M4277.961,611.417l2.218,2.046-1.324,1.309c-.926-.917-1.859-1.815-2.759-2.746a.83.83,0,0,1,.024-1.237c.887-.918,1.8-1.811,2.729-2.742l1.213,1.343Z" transform="translate(-4271.268 -596.071)" fill="#fff"/>
            <path id="Trazado_184081" data-name="Trazado 184081" d="M4368.058,612.286l-2.215-2.037,1.381-1.248c.875.854,1.828,1.756,2.745,2.7a.782.782,0,0,1,0,1.145c-.917.938-1.87,1.841-2.825,2.775l-1.234-1.3Z" transform="translate(-4350.946 -596.916)" fill="#fff"/>
            <path id="Trazado_184082" data-name="Trazado 184082" d="M4325.987,611.5l-1.772-.458,1.831-7.314,1.777.44C4327.207,606.627,4326.6,609.035,4325.987,611.5Z" transform="translate(-4314.097 -592.245)" fill="#fff"/>
            <path id="Trazado_184083" data-name="Trazado 184083" d="M4276.209,687.4v-1.758h1.782V687.4Z" transform="translate(-4271.603 -664.755)" fill="#fff"/>
            <path id="Trazado_184084" data-name="Trazado 184084" d="M4276.243,717.482h1.769v1.779h-1.769Z" transform="translate(-4271.633 -692.942)" fill="#fff"/>
            <path id="Trazado_184085" data-name="Trazado 184085" d="M4278.122,751.3h-1.761v-1.772h1.761Z" transform="translate(-4271.737 -721.314)" fill="#fff"/>
            <path id="Trazado_184086" data-name="Trazado 184086" d="M4525.571,751.339h-1.741v-1.782h1.741Z" transform="translate(-4490.795 -721.335)" fill="#fff"/>
            <path id="Trazado_184087" data-name="Trazado 184087" d="M4557.5,751.339h-1.741v-1.782h1.741Z" transform="translate(-4519.058 -721.335)" fill="#fff"/>
            <path id="Trazado_184088" data-name="Trazado 184088" d="M4278.047,783.176h-1.758v-1.782h1.758Z" transform="translate(-4271.673 -749.517)" fill="#fff"/>
            <path id="Trazado_184089" data-name="Trazado 184089" d="M4563.452,783.3v-1.752h1.782V783.3Z" transform="translate(-4525.868 -749.656)" fill="#fff"/>
            <path id="Trazado_184090" data-name="Trazado 184090" d="M4597.417,783.248h-1.758v-1.769h1.758Z" transform="translate(-4554.376 -749.592)" fill="#fff"/>
            <path id="Trazado_184091" data-name="Trazado 184091" d="M4527.571,563.251a6.523,6.523,0,1,1-6.5-6.55A6.538,6.538,0,0,1,4527.571,563.251Zm-1.834-.036a4.691,4.691,0,1,0-4.7,4.7A4.7,4.7,0,0,0,4525.737,563.214Z" transform="translate(-4482.557 -550.62)" fill="#fff"/>
            <path id="Trazado_184092" data-name="Trazado 184092" d="M4437.775,847.114h-1.759v-1.769h1.759Z" transform="translate(-4413.063 -806.125)" fill="#fff"/>
          </g>
        </g>
      </g>
    </g>
  </g>
</svg>
