<svg xmlns="http://www.w3.org/2000/svg" xmlns:xlink="http://www.w3.org/1999/xlink" width="585.054" height="233.781" viewBox="0 0 585.054 233.781">
  <defs>
    <linearGradient id="linear-gradient" x1="0.5" x2="0.5" y2="1" gradientUnits="objectBoundingBox">
      <stop offset="0" stop-color="#039be5"/>
      <stop offset="1" stop-color="#027fbc"/>
    </linearGradient>
  </defs>
  <g id="Grupo_152638" data-name="Grupo 152638" transform="translate(-195.16 -11784.346)">
    <rect id="Rectángulo_37703" data-name="Rectángulo 37703" width="283.654" height="71.594" rx="10" transform="translate(196.537 11785.193)" fill="url(#linear-gradient)"/>
    <g id="Rectángulo_37706" data-name="Rectángulo 37706" transform="translate(195.16 11785.193)" fill="#fff" stroke="#afafaf" stroke-width="1">
      <rect width="67.464" height="71.594" rx="10" stroke="none"/>
      <rect x="0.5" y="0.5" width="66.464" height="70.594" rx="9.5" fill="none"/>
    </g>
    <path id="Trazado_195428" data-name="Trazado 195428" d="M-64.815-4.685h-2.1V0h-2.637V-12.8H-64.8a5.375,5.375,0,0,1,3.5,1.011,3.488,3.488,0,0,1,1.23,2.856,3.937,3.937,0,0,1-.567,2.184,3.866,3.866,0,0,1-1.718,1.393l2.769,5.229V0h-2.83Zm-2.1-2.136h2.127a2.178,2.178,0,0,0,1.538-.505,1.806,1.806,0,0,0,.545-1.393,1.933,1.933,0,0,0-.514-1.424,2.137,2.137,0,0,0-1.578-.519h-2.118Zm13.061,7a4.668,4.668,0,0,1-3.406-1.283,4.561,4.561,0,0,1-1.314-3.419v-.246a5.745,5.745,0,0,1,.554-2.562,4.064,4.064,0,0,1,1.569-1.74,4.4,4.4,0,0,1,2.316-.611,3.947,3.947,0,0,1,3.072,1.23,5,5,0,0,1,1.121,3.489v1.037H-56a2.36,2.36,0,0,0,.743,1.494,2.245,2.245,0,0,0,1.569.563,2.742,2.742,0,0,0,2.294-1.063l1.248,1.4A3.813,3.813,0,0,1-51.693-.277,5.075,5.075,0,0,1-53.855.176Zm-.29-7.813a1.587,1.587,0,0,0-1.226.512,2.651,2.651,0,0,0-.6,1.466h3.533v-.2A1.891,1.891,0,0,0-52.9-7.174,1.638,1.638,0,0,0-54.145-7.638ZM-48.9-4.825a5.731,5.731,0,0,1,1-3.542,3.237,3.237,0,0,1,2.729-1.318,2.913,2.913,0,0,1,2.294,1.037V-13.5h2.549V0h-2.294l-.123-1.011A2.989,2.989,0,0,1-45.189.176a3.228,3.228,0,0,1-2.694-1.323A5.916,5.916,0,0,1-48.9-4.825Zm2.54.189a3.754,3.754,0,0,0,.466,2.051,1.517,1.517,0,0,0,1.354.713,1.7,1.7,0,0,0,1.661-.995V-6.625a1.675,1.675,0,0,0-1.644-.995Q-46.358-7.62-46.358-4.636ZM-35.679,0h-2.549V-9.51h2.549Zm-2.7-11.971a1.251,1.251,0,0,1,.382-.94,1.436,1.436,0,0,1,1.042-.369,1.44,1.44,0,0,1,1.037.369,1.244,1.244,0,0,1,.387.94,1.247,1.247,0,0,1-.391.949,1.443,1.443,0,0,1-1.033.369,1.443,1.443,0,0,1-1.033-.369A1.247,1.247,0,0,1-38.377-11.971Zm4.395,7.128a5.64,5.64,0,0,1,.545-2.522,3.989,3.989,0,0,1,1.569-1.714,4.577,4.577,0,0,1,2.377-.606A4.33,4.33,0,0,1-26.35-8.508a4.727,4.727,0,0,1,1.358,3.2l.018.65A4.97,4.97,0,0,1-26.2-1.147,4.247,4.247,0,0,1-29.474.176a4.268,4.268,0,0,1-3.283-1.318,5.058,5.058,0,0,1-1.226-3.586Zm2.54.18a3.555,3.555,0,0,0,.51,2.073,1.682,1.682,0,0,0,1.459.717,1.686,1.686,0,0,0,1.441-.709,3.89,3.89,0,0,0,.519-2.267,3.519,3.519,0,0,0-.519-2.06,1.686,1.686,0,0,0-1.459-.731,1.658,1.658,0,0,0-1.441.726A3.955,3.955,0,0,0-31.443-4.662ZM-22.715,0V-7.646H-24.13V-9.51h1.415v-.809A3.283,3.283,0,0,1-21.8-12.8a3.557,3.557,0,0,1,2.571-.883,5.938,5.938,0,0,1,1.292.176l-.026,1.969a3.238,3.238,0,0,0-.773-.079q-1.433,0-1.433,1.345v.765h1.89v1.863h-1.89V0Zm11.1-7.128a6.9,6.9,0,0,0-.914-.07,1.86,1.86,0,0,0-1.89.976V0h-2.54V-9.51h2.4l.07,1.134a2.354,2.354,0,0,1,2.118-1.31,2.662,2.662,0,0,1,.791.114Zm5.6,7.3A4.668,4.668,0,0,1-9.422-1.107a4.561,4.561,0,0,1-1.314-3.419v-.246a5.745,5.745,0,0,1,.554-2.562,4.064,4.064,0,0,1,1.569-1.74A4.4,4.4,0,0,1-6.3-9.686a3.947,3.947,0,0,1,3.072,1.23A5,5,0,0,1-2.1-4.966v1.037H-8.161a2.36,2.36,0,0,0,.743,1.494,2.245,2.245,0,0,0,1.569.563A2.742,2.742,0,0,0-3.555-2.936l1.248,1.4A3.813,3.813,0,0,1-3.854-.277,5.075,5.075,0,0,1-6.016.176Zm-.29-7.813a1.587,1.587,0,0,0-1.226.512,2.651,2.651,0,0,0-.6,1.466H-4.6v-.2a1.891,1.891,0,0,0-.457-1.311A1.638,1.638,0,0,0-6.306-7.638Zm9.6,5.766a1.666,1.666,0,0,0,1.143-.387,1.355,1.355,0,0,0,.457-1.028H7.273a3.258,3.258,0,0,1-.527,1.771A3.48,3.48,0,0,1,5.326-.268,4.442,4.442,0,0,1,3.335.176a4.129,4.129,0,0,1-3.217-1.3A5.13,5.13,0,0,1-1.059-4.7v-.167A5.071,5.071,0,0,1,.11-8.376a4.08,4.08,0,0,1,3.208-1.31A4,4,0,0,1,6.179-8.67a3.594,3.594,0,0,1,1.094,2.7H4.891a1.745,1.745,0,0,0-.457-1.206,1.524,1.524,0,0,0-1.16-.464,1.53,1.53,0,0,0-1.34.647,3.749,3.749,0,0,0-.453,2.1v.264a3.8,3.8,0,0,0,.448,2.113A1.549,1.549,0,0,0,3.292-1.872Zm11.127.905a3.185,3.185,0,0,1-2.6,1.143A3,3,0,0,1,9.483-.7a3.752,3.752,0,0,1-.822-2.575V-9.51H11.2v6.151q0,1.487,1.354,1.487a1.834,1.834,0,0,0,1.775-.9V-9.51h2.549V0H14.489ZM23.172.176a4.668,4.668,0,0,1-3.406-1.283,4.561,4.561,0,0,1-1.314-3.419v-.246a5.745,5.745,0,0,1,.554-2.562,4.064,4.064,0,0,1,1.569-1.74,4.4,4.4,0,0,1,2.316-.611,3.947,3.947,0,0,1,3.072,1.23,5,5,0,0,1,1.121,3.489v1.037H21.028a2.36,2.36,0,0,0,.743,1.494,2.245,2.245,0,0,0,1.569.563,2.742,2.742,0,0,0,2.294-1.063l1.248,1.4A3.813,3.813,0,0,1,25.334-.277,5.075,5.075,0,0,1,23.172.176Zm-.29-7.813a1.587,1.587,0,0,0-1.226.512,2.651,2.651,0,0,0-.6,1.466h3.533v-.2a1.891,1.891,0,0,0-.457-1.311A1.638,1.638,0,0,0,22.882-7.638Zm7.98-1.872.079,1.1a3.32,3.32,0,0,1,2.733-1.274,2.759,2.759,0,0,1,2.25.888,4.142,4.142,0,0,1,.756,2.654V0h-2.54V-6.082a1.648,1.648,0,0,0-.352-1.173,1.574,1.574,0,0,0-1.169-.365,1.747,1.747,0,0,0-1.608.914V0h-2.54V-9.51Zm11.7,7.638A1.666,1.666,0,0,0,43.7-2.259a1.355,1.355,0,0,0,.457-1.028h2.382a3.258,3.258,0,0,1-.527,1.771A3.48,3.48,0,0,1,44.6-.268,4.442,4.442,0,0,1,42.6.176a4.129,4.129,0,0,1-3.217-1.3A5.13,5.13,0,0,1,38.21-4.7v-.167a5.071,5.071,0,0,1,1.169-3.507,4.08,4.08,0,0,1,3.208-1.31A4,4,0,0,1,45.448-8.67a3.594,3.594,0,0,1,1.094,2.7H44.161A1.745,1.745,0,0,0,43.7-7.174a1.524,1.524,0,0,0-1.16-.464,1.53,1.53,0,0,0-1.34.647,3.749,3.749,0,0,0-.453,2.1v.264A3.8,3.8,0,0,0,41.2-2.515,1.549,1.549,0,0,0,42.561-1.872ZM50.673,0H48.125V-9.51h2.549Zm-2.7-11.971a1.251,1.251,0,0,1,.382-.94A1.436,1.436,0,0,1,49.4-13.28a1.44,1.44,0,0,1,1.037.369,1.244,1.244,0,0,1,.387.94,1.247,1.247,0,0,1-.391.949,1.443,1.443,0,0,1-1.033.369,1.443,1.443,0,0,1-1.033-.369A1.247,1.247,0,0,1,47.975-11.971ZM58.276,0a2.821,2.821,0,0,1-.255-.853,3.073,3.073,0,0,1-2.4,1.028,3.376,3.376,0,0,1-2.316-.809,2.6,2.6,0,0,1-.918-2.039,2.687,2.687,0,0,1,1.121-2.32,5.529,5.529,0,0,1,3.239-.817h1.169v-.545a1.567,1.567,0,0,0-.338-1.055,1.331,1.331,0,0,0-1.068-.4A1.513,1.513,0,0,0,55.5-7.5a1.045,1.045,0,0,0-.365.844H52.6a2.551,2.551,0,0,1,.51-1.529,3.37,3.37,0,0,1,1.441-1.1,5.253,5.253,0,0,1,2.092-.4,4.15,4.15,0,0,1,2.791.883,3.09,3.09,0,0,1,1.033,2.483V-2.2a4.546,4.546,0,0,0,.378,2.048V0Zm-2.1-1.767a2.188,2.188,0,0,0,1.037-.25,1.645,1.645,0,0,0,.7-.672V-4.324h-.949q-1.907,0-2.03,1.318l-.009.149a1.017,1.017,0,0,0,.334.782A1.3,1.3,0,0,0,56.175-1.767Zm11.391-.861a.818.818,0,0,0-.461-.734,5.241,5.241,0,0,0-1.481-.479q-3.393-.712-3.393-2.883a2.613,2.613,0,0,1,1.05-2.114,4.237,4.237,0,0,1,2.747-.848,4.56,4.56,0,0,1,2.9.853,2.687,2.687,0,0,1,1.085,2.215h-2.54a1.229,1.229,0,0,0-.352-.9,1.488,1.488,0,0,0-1.1-.356,1.52,1.52,0,0,0-.993.29.916.916,0,0,0-.352.738.783.783,0,0,0,.4.681,4.114,4.114,0,0,0,1.349.448,11.019,11.019,0,0,1,1.6.426,2.628,2.628,0,0,1,2.013,2.558,2.481,2.481,0,0,1-1.116,2.1,4.815,4.815,0,0,1-2.883.8A5.029,5.029,0,0,1,63.914-.25a3.561,3.561,0,0,1-1.455-1.169,2.716,2.716,0,0,1-.527-1.6H64.34a1.326,1.326,0,0,0,.5,1.037,1.987,1.987,0,0,0,1.248.36,1.839,1.839,0,0,0,1.1-.277A.861.861,0,0,0,67.566-2.628Z" transform="translate(370.56 11829.599)" fill="#fff"/>
    <path id="Trazado_193213" data-name="Trazado 193213" d="M2460.052-436.866a27.444,27.444,0,0,1-5.886,17,27.543,27.543,0,0,1-5.269,5.164c-1.148.859-2.249.8-3.022-.2a1.975,1.975,0,0,1,.58-2.937,23.686,23.686,0,0,0,6.442-7.2,23.174,23.174,0,0,0,3.029-9.238,23.37,23.37,0,0,0-3.027-14.5,23.6,23.6,0,0,0-6.391-7.171,3.187,3.187,0,0,1-.874-.985,1.874,1.874,0,0,1,.446-2.272,1.818,1.818,0,0,1,2.348-.208,45.307,45.307,0,0,1,4.325,3.824,26.433,26.433,0,0,1,6.081,10.574A27.563,27.563,0,0,1,2460.052-436.866Z" transform="translate(-2203.412 12259.518)" fill="#12263f"/>
    <path id="Trazado_193214" data-name="Trazado 193214" d="M2079.213-436.737a27.5,27.5,0,0,1,8.819-20.209,32.479,32.479,0,0,1,2.527-2.09,1.979,1.979,0,0,1,2.791.227,1.936,1.936,0,0,1-.269,2.818c-1.326,1.212-2.738,2.343-3.959,3.653a22.347,22.347,0,0,0-5.089,9.292,22.61,22.61,0,0,0-.866,6.3,23.416,23.416,0,0,0,4.893,14.474,23.3,23.3,0,0,0,4.745,4.663,2,2,0,0,1,.928,2.2,1.933,1.933,0,0,1-1.6,1.5,1.849,1.849,0,0,1-1.559-.4,27.654,27.654,0,0,1-10.557-15.71A25.444,25.444,0,0,1,2079.213-436.737Z" transform="translate(-1878.065 12259.297)" fill="#12263f"/>
    <path id="Trazado_193215" data-name="Trazado 193215" d="M2150.23-388.149a20.365,20.365,0,0,1,4.492-13.442,18.062,18.062,0,0,1,4.322-3.9,1.969,1.969,0,0,1,3.074,1.239,1.924,1.924,0,0,1-.795,1.985,16.257,16.257,0,0,0-5.335,5.933,15.568,15.568,0,0,0-1.752,8.243,15.649,15.649,0,0,0,5.423,11.049,20.332,20.332,0,0,0,1.633,1.247,1.956,1.956,0,0,1,.475,2.751,1.945,1.945,0,0,1-2.65.542,19.587,19.587,0,0,1-7.526-9.3A18.08,18.08,0,0,1,2150.23-388.149Z" transform="translate(-1941.159 12211.628)" fill="#12263f"/>
    <path id="Trazado_193216" data-name="Trazado 193216" d="M2410.437-389.017a19.43,19.43,0,0,1-5.234,13.455,33.955,33.955,0,0,1-3.507,3.07,1.983,1.983,0,0,1-2.781-.344,1.967,1.967,0,0,1,.455-2.839,16.794,16.794,0,0,0,3.966-3.789,15.554,15.554,0,0,0,3.08-10.129,15.489,15.489,0,0,0-3.571-9.357,16.407,16.407,0,0,0-3.443-3.141,1.941,1.941,0,0,1-.562-2.773,2.012,2.012,0,0,1,2.8-.479,19.555,19.555,0,0,1,8.445,12.925c.072.382.165.763.2,1.149C2410.356-390.475,2410.394-389.678,2410.437-389.017Z" transform="translate(-2161.707 12211.506)" fill="#12263f"/>
    <path id="Trazado_193217" data-name="Trazado 193217" d="M2221.4-340.453a11.725,11.725,0,0,1,6.219-10.431,1.971,1.971,0,0,1,2.829.676,1.975,1.975,0,0,1-.882,2.775,7.676,7.676,0,0,0-4.058,5.512,7.571,7.571,0,0,0,2.965,7.688,11.074,11.074,0,0,0,1.158.751,2.036,2.036,0,0,1,1.009,2.22,2.009,2.009,0,0,1-1.835,1.527,1.994,1.994,0,0,1-1.008-.241,11.731,11.731,0,0,1-6.177-8.161,12.827,12.827,0,0,1-.214-1.37A9.208,9.208,0,0,1,2221.4-340.453Z" transform="translate(-2004.378 12163.087)" fill="#12263f"/>
    <path id="Trazado_193218" data-name="Trazado 193218" d="M2360.169-340.73c-.25,4.9-2.324,8.4-6.39,10.684a1.976,1.976,0,0,1-2.7-.7,1.966,1.966,0,0,1,.762-2.737,9.019,9.019,0,0,0,2.87-2.5,7.855,7.855,0,0,0-2.069-11.048c-.28-.179-.566-.35-.85-.525a1.976,1.976,0,0,1-.744-2.7,1.977,1.977,0,0,1,2.7-.735,11.72,11.72,0,0,1,6.018,7.666A24.49,24.49,0,0,1,2360.169-340.73Z" transform="translate(-2119.337 12163.121)" fill="#12263f"/>
    <path id="Trazado_193219" data-name="Trazado 193219" d="M2292.419-286.448a3.91,3.91,0,0,1,3.957-3.97,3.951,3.951,0,0,1,3.962,3.933,3.977,3.977,0,0,1-3.973,3.986A3.951,3.951,0,0,1,2292.419-286.448Z" transform="translate(-2067.482 12109.079)" fill="#12263f"/>
    <rect id="Rectángulo_37703-2" data-name="Rectángulo 37703" width="283.654" height="71.594" rx="10" transform="translate(196.744 11865.787)" fill="url(#linear-gradient)"/>
    <g id="Rectángulo_37706-2" data-name="Rectángulo 37706" transform="translate(195.367 11865.787)" fill="#fff" stroke="#afafaf" stroke-width="1">
      <rect width="67.464" height="71.594" rx="10" stroke="none"/>
      <rect x="0.5" y="0.5" width="66.464" height="70.594" rx="9.5" fill="none"/>
    </g>
    <text id="Microondas" transform="translate(370.767 11910.192)" fill="#fff" font-size="18" font-family="Roboto-Bold, Roboto" font-weight="700"><tspan x="-47.83" y="0">Microondas</tspan></text>
    <path id="Trazado_193220" data-name="Trazado 193220" d="M2581.552-370.849c.9-2.44,1.783-4.884,2.692-7.319.935-2.506,1.893-5,2.849-7.526a26.4,26.4,0,0,1-3.971-5,25.978,25.978,0,0,1-2.836-6.528,25.317,25.317,0,0,1-.877-8.649,31.124,31.124,0,0,1,.847-5.045,21.779,21.779,0,0,1,2.2-5.583,24.81,24.81,0,0,1,3.033-4.4c.412-.47.737-.976,1.49-.95a1.654,1.654,0,0,1,1.167.588l13.884,13.884c.148.148.285.308.458.5a3.9,3.9,0,0,1,3.519-.89,3.431,3.431,0,0,1,1.905,1.132,3.8,3.8,0,0,1-.1,5.021c.15.158.3.321.457.478q6.982,6.983,13.974,13.956a1.51,1.51,0,0,1,.133,2.2q-.873.761-1.8,1.454a24.194,24.194,0,0,1-8.215,4.081,36.7,36.7,0,0,1-4.863.884,18.944,18.944,0,0,1-3.648.112c-1.5-.1-2.98-.385-4.469-.6-.292-.042-.579-.12-.942-.2.647,1.934,1.278,3.8,1.9,5.677.3.906.573,1.82.857,2.73Zm5.411-47.82a23.239,23.239,0,0,0,5.207,33.781c9.556,6.384,21.169,4.259,27.36-1.216Zm10.7,45.277c-.045-.168-.064-.258-.092-.345-.632-1.921-1.274-3.838-1.891-5.763a1.462,1.462,0,0,0-.958-1.1,7.97,7.97,0,0,1-1.521-.721c-1.353-.8-2.688-1.626-4.087-2.476l-3.9,10.409Zm8.33-30.111a1.038,1.038,0,0,0-.267-1.595c-.51-.346-.968-.3-1.244.088Z" transform="translate(-2375.866 12301.834)" fill="#12263f"/>
    <path id="Trazado_193221" data-name="Trazado 193221" d="M2824.749-489.752c.933.231,1.879.419,2.8.7a22.208,22.208,0,0,1,3.374,1.212,44.117,44.117,0,0,1,4.67,2.688,22.911,22.911,0,0,1,4.394,4.007,23.766,23.766,0,0,1,3.626,5.418,30.813,30.813,0,0,1,1.669,4.458,22.863,22.863,0,0,1,.695,3.521,1.179,1.179,0,0,1-1.14,1.294,1.217,1.217,0,0,1-1.243-.918c-.361-1.392-.61-2.817-1.05-4.183a21.848,21.848,0,0,0-4.3-7.657,23.825,23.825,0,0,0-5.353-4.7,23.2,23.2,0,0,0-7.672-3.1c-.53-.11-1.056-.244-1.59-.329a1.094,1.094,0,0,1-.919-1.126,1.109,1.109,0,0,1,.671-1.18c.044-.02.072-.076.107-.115Z" transform="translate(-2591.27 12361.935)" fill="#12263f"/>
    <path id="Trazado_193222" data-name="Trazado 193222" d="M2819.968-426.447c1.009.274,2.039.488,3.022.836a18.291,18.291,0,0,1,4.706,2.5,18.236,18.236,0,0,1,4.89,5.343,19.109,19.109,0,0,1,2.338,6.046,1.425,1.425,0,0,1-.522,1.569,1.132,1.132,0,0,1-1.416-.05,2.068,2.068,0,0,1-.539-.873c-.506-1.423-.889-2.9-1.488-4.278a13.135,13.135,0,0,0-2.343-3.431,14.511,14.511,0,0,0-4.917-3.709,33.542,33.542,0,0,0-4.032-1.34c-.73-.22-1.222-.745-1.12-1.4A1.309,1.309,0,0,1,2819.968-426.447Z" transform="translate(-2587.579 12305.9)" fill="#12263f"/>
    <path id="Trazado_193223" data-name="Trazado 193223" d="M2821.819-353.455a1.063,1.063,0,0,1-.934,1.205,1.173,1.173,0,0,1-1.454-.683c-.239-.566-.4-1.166-.647-1.728a8.177,8.177,0,0,0-5.686-4.809,1.342,1.342,0,0,1-.923-1.931,1.268,1.268,0,0,1,1.522-.579,10.974,10.974,0,0,1,5.891,3.75,10.59,10.59,0,0,1,2.123,4.113c.028.108.086.21.1.319A2.148,2.148,0,0,1,2821.819-353.455Z" transform="translate(-2581.803 12248.89)" fill="#12263f"/>
    <rect id="Rectángulo_37703-3" data-name="Rectángulo 37703" width="283.654" height="71.594" rx="10" transform="translate(201.053 11946.381)" fill="url(#linear-gradient)"/>
    <g id="Rectángulo_37706-3" data-name="Rectángulo 37706" transform="translate(199.676 11946.381)" fill="#fff" stroke="#afafaf" stroke-width="1">
      <rect width="67.464" height="71.594" rx="10" stroke="none"/>
      <rect x="0.5" y="0.5" width="66.464" height="70.594" rx="9.5" fill="none"/>
    </g>
    <text id="Infrarojos" transform="translate(370.075 11990.786)" fill="#fff" font-size="18" font-family="Roboto-Bold, Roboto" font-weight="700"><tspan x="-39.133" y="0">Infrarojos</tspan></text>
    <path id="Trazado_193224" data-name="Trazado 193224" d="M3312.793-296.828a22.258,22.258,0,0,1,3.737.282,5.533,5.533,0,0,1,4.075,4.966c.034.418.06.838.06,1.257q.005,17.23,0,34.46c0,3.415-1.61,5.715-4.573,6.353a19.167,19.167,0,0,1-3.3.151v-3.9c.38.007.76.019,1.141.02,2.277,0,2.839-.547,2.847-2.8s0-4.492,0-6.738v-3.18l-3.99.778v-15.823l3.99.778v-8.891c0-3.707-.221-3.918-3.99-3.811Z" transform="translate(-3105.73 12256.001)" fill="#12263f"/>
    <path id="Trazado_193225" data-name="Trazado 193225" d="M3498.367-277.226c-.3,2.07-.521,4.155-.919,6.205a40.234,40.234,0,0,1-7.077,16.092c-.85,1.171-1.99,1.449-2.946.766s-1.062-1.852-.2-3.036a36.971,36.971,0,0,0,6.951-17.681,37.291,37.291,0,0,0-6.349-25.865c-.278-.411-.591-.8-.846-1.224a1.952,1.952,0,0,1,.445-2.651,1.841,1.841,0,0,1,2.717.482,71.584,71.584,0,0,1,4.165,6.953,37.779,37.779,0,0,1,3.873,14.719,5.76,5.76,0,0,0,.19.884Z" transform="translate(-3239.727 12262.311)" fill="#12263f"/>
    <path id="Trazado_193226" data-name="Trazado 193226" d="M3467.052-265.877a33.178,33.178,0,0,1-6.919,20.2c-.978,1.289-1.976,1.532-3.014.779-.96-.7-1.007-1.9-.076-3.13a29.409,29.409,0,0,0,6.044-20.375,29,29,0,0,0-5.818-15.526c-1.122-1.507-1.183-2.638-.181-3.412,1.092-.843,2.111-.529,3.3,1.081A33.58,33.58,0,0,1,3467.052-265.877Z" transform="translate(-3216.396 12249.039)" fill="#12263f"/>
    <path id="Trazado_193227" data-name="Trazado 193227" d="M3435.944-253.767c.1,7.188-1.865,13.134-6.208,18.239a1.852,1.852,0,0,1-2.744.3,1.957,1.957,0,0,1-.148-2.86,22.465,22.465,0,0,0,4.267-7.893,21.533,21.533,0,0,0-3.655-19.685c-.228-.306-.487-.59-.7-.9a2.011,2.011,0,0,1,.242-2.778,1.824,1.824,0,0,1,2.8.415,52.839,52.839,0,0,1,3.717,5.874,22.188,22.188,0,0,1,1.683,4.836C3435.6-256.6,3435.758-254.92,3435.944-253.767Z" transform="translate(-3193.216 12235.186)" fill="#12263f"/>
    <path id="Trazado_193228" data-name="Trazado 193228" d="M3404.543-238.346a18.064,18.064,0,0,1-4.88,12.466c-1.208,1.29-2.314,1.467-3.248.555-.9-.878-.772-1.951.387-3.2a13.616,13.616,0,0,0,3.815-9.984,13.59,13.59,0,0,0-3.6-8.923c-.229-.256-.487-.489-.691-.763a1.886,1.886,0,0,1,.123-2.675,1.9,1.9,0,0,1,2.765.113,17.39,17.39,0,0,1,5.076,9.9C3404.436-239.916,3404.482-238.961,3404.543-238.346Z" transform="translate(-3169.729 12220.991)" fill="#12263f"/>
    <path id="Trazado_193229" data-name="Trazado 193229" d="M3371.963-223.539a9.792,9.792,0,0,1-4.531,8.582c-1.292.865-2.48.748-3.135-.218-.734-1.082-.414-2.072.982-3.031a5.956,5.956,0,0,0,.711-9.6c-.343-.3-.745-.527-1.112-.8a1.881,1.881,0,0,1-.649-2.68,1.9,1.9,0,0,1,2.709-.576A9.55,9.55,0,0,1,3371.963-223.539Z" transform="translate(-3145.129 12206.174)" fill="#12263f"/>
    <rect id="Rectángulo_37703-4" data-name="Rectángulo 37703" width="283.654" height="71.594" rx="10" transform="translate(496.561 11864.939)" fill="url(#linear-gradient)"/>
    <g id="Rectángulo_37706-4" data-name="Rectángulo 37706" transform="translate(495.184 11864.939)" fill="#fff" stroke="#afafaf" stroke-width="1">
      <rect width="67.464" height="71.594" rx="10" stroke="none"/>
      <rect x="0.5" y="0.5" width="66.464" height="70.594" rx="9.5" fill="none"/>
    </g>
    <text id="Wifi" transform="translate(665.583 11909.345)" fill="#fff" font-size="18" font-family="Roboto-Italic, Roboto" font-style="italic"><tspan x="-14.827" y="0">Wifi</tspan></text>
    <path id="Trazado_193231" data-name="Trazado 193231" d="M3990.539-698.1l-3.326,3.566c-1.876-1.412-3.494-2.726-5.208-3.9a34.642,34.642,0,0,0-13.1-5.506,26.274,26.274,0,0,0-13.929,1.261,38.551,38.551,0,0,0-12.893,7.7c-.1.087-.2.175-.3.258a1.887,1.887,0,0,1-.162.107l-3.571-3.489v-.113a2.446,2.446,0,0,0,.257-.2,34.186,34.186,0,0,1,7.066-5.534,36.1,36.1,0,0,1,15.167-5.109c.631-.062,1.26-.142,1.89-.214h3.612c.163.033.324.078.489.1,1.521.192,3.056.3,4.561.582a36.157,36.157,0,0,1,15.99,7.338c1.2.948,2.3,2.025,3.452,3.043Z" transform="translate(-3435.42 12589.742)" fill="#12263f"/>
    <path id="Trazado_193232" data-name="Trazado 193232" d="M4138.064-405.959a5.246,5.246,0,0,1-2.374-1.286,4.247,4.247,0,0,1-.713-4.894,4.262,4.262,0,0,1,4.252-2.259,4.273,4.273,0,0,1,3.673,3.531,4.224,4.224,0,0,1-3.4,4.815.919.919,0,0,0-.2.094Z" transform="translate(-3609.695 12328.184)" fill="#12263f"/>
    <path id="Trazado_193233" data-name="Trazado 193233" d="M4042.3-608.736l-3.75,3.553c-7.508-8.744-22.541-9.314-30.288-.01l-3.719-3.526C4014.666-618.86,4030.369-620.29,4042.3-608.736Z" transform="translate(-3494.404 12507.766)" fill="#12263f"/>
    <path id="Trazado_193234" data-name="Trazado 193234" d="M4093.884-517.74l-3.56,3.729a9.9,9.9,0,0,0-7.667-3.636,9.993,9.993,0,0,0-7.676,3.579l-3.54-3.7C4077.138-523.621,4086.724-524.69,4093.884-517.74Z" transform="translate(-3553.751 12424.102)" fill="#12263f"/>
    <rect id="Rectángulo_37703-5" data-name="Rectángulo 37703" width="283.654" height="71.594" rx="10" transform="translate(496.561 11784.346)" fill="url(#linear-gradient)"/>
    <g id="Rectángulo_37706-5" data-name="Rectángulo 37706" transform="translate(495.184 11784.346)" fill="#fff" stroke="#afafaf" stroke-width="1">
      <rect width="67.464" height="71.594" rx="10" stroke="none"/>
      <rect x="0.5" y="0.5" width="66.464" height="70.594" rx="9.5" fill="none"/>
    </g>
    <text id="Bluetooth" transform="translate(665.583 11828.751)" fill="#fff" font-size="18" font-family="Roboto-Italic, Roboto" font-style="italic"><tspan x="-37.767" y="0">Bluetooth</tspan></text>
    <path id="Trazado_193230" data-name="Trazado 193230" d="M3286.292-401.694a2.232,2.232,0,0,1-1.543-1.334,3.378,3.378,0,0,1-.167-1.013q-.016-7.573-.007-15.146v-.577c-.176.161-.3.262-.406.373q-3.2,3.205-6.407,6.411a2.1,2.1,0,0,1-2.865.315,2.113,2.113,0,0,1-.418-2.977,5.066,5.066,0,0,1,.429-.466q4.21-4.217,8.422-8.433c.115-.115.223-.236.351-.372-.131-.137-.24-.258-.356-.374q-4.259-4.265-8.518-8.529a2.152,2.152,0,0,1-.352-2.9,2.09,2.09,0,0,1,2.934-.445,4.614,4.614,0,0,1,.5.453q3.125,3.123,6.244,6.253a3.281,3.281,0,0,1,.294.4l.142-.073v-.467q0-7.664,0-15.327a2.063,2.063,0,0,1,2.235-2.173,2.765,2.765,0,0,1,1.37.6c2.031,1.642,4.024,3.332,6.029,5.006q3.13,2.613,6.259,5.226a2.153,2.153,0,0,1,.006,3.613l-10.018,8.357c-.138.115-.27.236-.437.383.134.124.247.238.37.34q5.008,4.18,10.018,8.357a2.173,2.173,0,0,1,.023,3.7q-6.1,5.093-12.213,10.181a7.548,7.548,0,0,1-1.112.647Zm9.735-33.771-7.176-5.986v11.973Zm-7.179,15.115v11.979l7.179-5.991Z" transform="translate(-2758.832 12245.045)" fill="#12263f"/>
    <rect id="Rectángulo_37703-6" data-name="Rectángulo 37703" width="283.654" height="71.594" rx="10" transform="translate(496.561 11946.533)" fill="url(#linear-gradient)"/>
    <g id="Rectángulo_37706-6" data-name="Rectángulo 37706" transform="translate(495.184 11946.533)" fill="#fff" stroke="#afafaf" stroke-width="1">
      <rect width="67.464" height="71.594" rx="10" stroke="none"/>
      <rect x="0.5" y="0.5" width="66.464" height="70.594" rx="9.5" fill="none"/>
    </g>
    <text id="Satelital" transform="translate(665.583 11990.938)" fill="#fff" font-size="18" font-family="Roboto-Bold, Roboto" font-weight="700"><tspan x="-33.289" y="0">Satelital</tspan></text>
    <path id="Trazado_193235" data-name="Trazado 193235" d="M5044.305-225.558l-13.118,13.109-1.84-1.972c-1,1-1.9,1.884-2.771,2.8a.744.744,0,0,0-.083.537,3.741,3.741,0,0,1-2.615,4.159,3.719,3.719,0,0,1-4.458-1.975,3.534,3.534,0,0,1,.35-3.823,3.485,3.485,0,0,1,3.484-1.494.933.933,0,0,0,.9-.311c.8-.827,1.627-1.626,2.52-2.512l-1.987-1.81,13.18-13.163Z" transform="translate(-4499.557 12199.146)" fill="#12263f"/>
    <path id="Trazado_193236" data-name="Trazado 193236" d="M4871.512-43.345a24.853,24.853,0,0,1-9.125-2.427,26.134,26.134,0,0,1-14.434-17.778,31.028,31.028,0,0,1-.616-3.839,1.867,1.867,0,0,1,1.694-2.112,1.95,1.95,0,0,1,2.08,1.865,28.045,28.045,0,0,0,.811,4.343c2.6,8.188,8.086,13.406,16.381,15.638a23.8,23.8,0,0,0,3.215.518c1.445.182,2.265,1.228,1.878,2.463A1.87,1.87,0,0,1,4871.512-43.345Z" transform="translate(-4344.621 12052.497)" fill="#12263f"/>
    <path id="Trazado_193237" data-name="Trazado 193237" d="M4943.241-52.7a1.836,1.836,0,0,1-2.182,1.849,23.173,23.173,0,0,1-4.243-1.038A18.558,18.558,0,0,1,4924.73-66.5a4.309,4.309,0,0,1-.063-1.491,1.785,1.785,0,0,1,1.85-1.474,1.815,1.815,0,0,1,1.793,1.557,15.067,15.067,0,0,0,2.293,6.461,14.827,14.827,0,0,0,10.7,6.833C4942.535-54.443,4943.241-53.758,4943.241-52.7Z" transform="translate(-4414.381 12052.461)" fill="#12263f"/>
    <path id="Trazado_193238" data-name="Trazado 193238" d="M4974.511-268.691c-.94.94-1.882,1.9-2.851,2.84a.952.952,0,0,1-1.431-.1q-2.249-2.238-4.489-4.484l-3.625-3.623c-.664-.663-.661-1.148.01-1.825.87-.877,1.739-1.755,2.588-2.612Z" transform="translate(-4447.764 12241.082)" fill="#12263f"/>
    <path id="Trazado_193239" data-name="Trazado 193239" d="M5195.2-47.963l9.751,9.745c-.074.086-.149.185-.236.272q-1.206,1.209-2.417,2.415a1.052,1.052,0,0,1-1.751.01q-3.71-3.71-7.419-7.422c-.276-.276-.562-.543-.822-.834a.915.915,0,0,1-.025-1.285C5193.231-46.039,5194.213-46.986,5195.2-47.963Z" transform="translate(-4655.684 12033.056)" fill="#12263f"/>
    <path id="Trazado_193240" data-name="Trazado 193240" d="M5031.387-325.671l-9.8-9.806c.948-.94,1.9-1.916,2.893-2.856.429-.407.947-.333,1.427.145q2.818,2.8,5.625,5.616,1.225,1.224,2.447,2.449c.7.7.695,1.139-.01,1.853Q5032.679-326.968,5031.387-325.671Z" transform="translate(-4501.873 12295.323)" fill="#12263f"/>
    <path id="Trazado_193241" data-name="Trazado 193241" d="M5252.749-104.858c.948-.967,1.908-1.977,2.907-2.947a.97.97,0,0,1,1.353.2q2.02,2.009,4.033,4.027t4.03,4.029c.71.712.709,1.147.012,1.853-.866.878-1.731,1.757-2.567,2.606Z" transform="translate(-4710.477 12087.237)" fill="#12263f"/>
    <path id="Trazado_193242" data-name="Trazado 193242" d="M5240.167-296.189c.866-.879,1.7-1.815,2.631-2.651a4.616,4.616,0,0,1,6.354.231,4.637,4.637,0,0,1,.08,6.434c-.825.872-1.686,1.71-2.51,2.542Z" transform="translate(-4699.123 12260.489)" fill="#12263f"/>
  </g>
</svg>
